# xmcd
#
# Track frame offsets: 
#        150
#        25010
#        58722
#        87897
#
# Disc length: 1497 seconds
#
# Revision: 5
# Processed by: cddbd v1.5.2PL0 Copyright (c) Steve Scherf et al.
# Submitted via: ExactAudioCopy v0.99pb4
#
DISCID=2605d704
DTITLE=Depeche Mode - Barrel of a Gun
DYEAR=1997
DGENRE=New Wave
TTITLE0=Barrel Of A Gun (Original Version)
TTITLE1=Painkiller (Original Version)
TTITLE2=Barrel Of A Gun (Underworld Soft Mix)
TTITLE3=Barrel Of A Gun (One Inch Punch Mix)
EXTD=Released 3rd February 1997\n ID3G: 147 YEAR: 1997
EXTT0=
EXTT1=
EXTT2=
EXTT3=
PLAYORDER=
